<svg width="391" height="485" viewBox="0 0 391 485" fill="none" xmlns="http://www.w3.org/2000/svg">
<g clip-path="url(#clip0)">
<path d="M235.455 474.854H0V472.987H235.804L235.455 474.854Z" fill="#3F3D56"/>
<path d="M81.354 447.797L67.6509 448.684L69.478 309.503H103.279L81.354 447.797Z" fill="#A0616A"/>
<path d="M147.129 447.797L133.426 448.684L135.253 309.503L157.114 309.508L147.129 447.797Z" fill="#A0616A"/>
<path d="M161.745 432.727C147.401 439.075 133.919 438.751 121.085 433.401L114.241 274.043L94.6377 432.006C80.3035 435.447 65.815 435.432 51.2065 432.727C54.5712 409.063 68.9349 265.004 67.6503 238.582L163.572 234.15L161.745 432.727Z" fill="#1A212F"/>
<path d="M78.9031 484.269C77.0141 484.269 75.145 483.894 73.4106 483.167C71.6762 482.441 70.1132 481.378 68.8175 480.044C67.5218 478.71 66.5208 477.133 65.876 475.41C65.2311 473.687 64.9561 471.855 65.0677 470.025L66.3897 448.348C71.7131 439.086 78.1744 439.049 85.705 447.679L92.0799 466.65C92.7584 468.669 92.9345 470.815 92.5939 472.913C92.2533 475.01 91.4056 477 90.1202 478.719C88.8348 480.438 87.1482 481.836 85.1986 482.801C83.2489 483.766 81.0916 484.269 78.9031 484.269Z" fill="#1A212F"/>
<path d="M143.764 484.269C141.875 484.269 140.006 483.894 138.272 483.167C136.538 482.441 134.974 481.378 133.679 480.044C132.383 478.71 131.382 477.133 130.737 475.41C130.092 473.687 129.817 471.855 129.929 470.025L131.251 448.348C136.574 439.086 143.036 439.049 150.566 447.679L156.941 466.65C157.62 468.669 157.796 470.815 157.455 472.913C157.115 475.01 156.267 477 154.981 478.719C153.696 480.438 152.01 481.836 150.06 482.801C148.11 483.766 145.953 484.269 143.764 484.269Z" fill="#1A212F"/>
<path d="M125.204 62.1684C139.835 62.1684 151.697 50.6583 151.697 36.4598C151.697 22.2613 139.835 10.7512 125.204 10.7512C110.572 10.7512 98.7109 22.2613 98.7109 36.4598C98.7109 50.6583 110.572 62.1684 125.204 62.1684Z" fill="#A0616A"/>
<path d="M124.29 85.2175L81.3535 68.374C91.6291 63.4864 98.6058 54.4032 104.192 43.5519H123.377C122.461 60.1098 121.724 76.2778 124.29 85.2175Z" fill="#A0616A"/>
<path d="M166.313 240.355L63.9963 243.015C65.2423 195.339 63.0564 146.283 57.9272 96.0424C57.3519 90.3788 58.721 84.6894 61.8215 79.8587C64.922 75.028 69.5802 71.3266 75.0721 69.33L85.0078 65.7144L125.204 76.3524L144.174 90.466C146.716 92.3631 148.734 94.8414 150.048 97.6796C151.362 100.518 151.932 103.628 151.706 106.732C148.834 147.432 155.246 192.739 166.313 240.355Z" fill="#34B2B4"/>
<path d="M177.721 273.933C174.997 274.087 172.317 273.22 170.232 271.512C168.147 269.804 166.817 267.385 166.516 264.753L164.254 244.991L176.341 241.723L186.322 258.426C187.234 259.954 187.729 261.683 187.757 263.448C187.786 265.214 187.349 266.957 186.486 268.512C185.624 270.066 184.366 271.381 182.831 272.33C181.297 273.279 179.538 273.831 177.721 273.933Z" fill="#A0616A"/>
<path d="M188.238 246.561L164.486 247.447L146.215 176.527L141.647 88.7634C145.828 89.2705 149.716 91.114 152.697 94.0029C155.678 96.8918 157.583 100.662 158.112 104.718L166.313 167.662L188.238 246.561Z" fill="#34B2B4"/>
<path opacity="0.2" d="M75.416 114.916L74.5024 173.425L114.698 239.026L79.0702 171.652L75.416 114.916Z" fill="black"/>
<path opacity="0.2" d="M63.2876 203.287L87.1119 243.015L78.6689 242.572L63.2876 203.287Z" fill="black"/>
<path d="M118.472 195.555C117.36 195.557 116.295 195.986 115.509 196.748C114.723 197.511 114.281 198.545 114.279 199.624V451.848C114.281 452.926 114.723 453.96 115.509 454.723C116.295 455.486 117.36 455.915 118.472 455.916H386.773C387.884 455.915 388.95 455.486 389.736 454.723C390.522 453.96 390.964 452.926 390.965 451.848V199.624C390.964 198.545 390.522 197.511 389.736 196.748C388.95 195.986 387.884 195.557 386.773 195.555L118.472 195.555Z" fill="#E6E6E6"/>
<path d="M124.785 445.721H380.459V205.75H124.785V445.721Z" fill="white"/>
<path d="M147.557 243.981C145.851 243.981 144.463 246.353 144.463 249.269C144.463 252.185 145.851 254.558 147.557 254.558H264.166C265.872 254.558 267.26 252.185 267.26 249.269C267.26 246.353 265.872 243.981 264.166 243.981H147.557Z" fill="#E6E6E6"/>
<path d="M147.557 276.526C145.851 276.526 144.463 278.898 144.463 281.814C144.463 284.73 145.851 287.103 147.557 287.103H264.166C265.872 287.103 267.26 284.73 267.26 281.814C267.26 278.898 265.872 276.526 264.166 276.526H147.557Z" fill="#E6E6E6"/>
<path d="M147.557 308.696C145.851 308.696 144.463 311.068 144.463 313.984C144.463 316.9 145.851 319.273 147.557 319.273H264.166C265.872 319.273 267.26 316.9 267.26 313.984C267.26 311.068 265.872 308.696 264.166 308.696H147.557Z" fill="#E6E6E6"/>
<path d="M147.557 341.24C145.851 341.24 144.463 343.613 144.463 346.529C144.463 349.445 145.851 351.818 147.557 351.818H264.166C265.872 351.818 267.26 349.445 267.26 346.529C267.26 343.613 265.872 341.24 264.166 341.24H147.557Z" fill="#E6E6E6"/>
<path d="M323.244 244.329C321.798 244.329 320.412 244.886 319.39 245.878C318.368 246.87 317.794 248.215 317.794 249.617C317.794 251.02 318.368 252.365 319.39 253.357C320.412 254.349 321.798 254.906 323.244 254.906H345.043C346.489 254.906 347.875 254.349 348.897 253.357C349.919 252.365 350.493 251.02 350.493 249.617C350.493 248.215 349.919 246.87 348.897 245.878C347.875 244.886 346.489 244.329 345.043 244.329H323.244Z" fill="#E6E6E6"/>
<path d="M323.244 276.243C321.798 276.243 320.412 276.8 319.39 277.792C318.368 278.784 317.794 280.129 317.794 281.531C317.794 282.934 318.368 284.279 319.39 285.271C320.412 286.263 321.798 286.82 323.244 286.82H345.043C346.489 286.82 347.875 286.263 348.897 285.271C349.919 284.279 350.493 282.934 350.493 281.531C350.493 280.129 349.919 278.784 348.897 277.792C347.875 276.8 346.489 276.243 345.043 276.243H323.244Z" fill="#E6E6E6"/>
<path d="M323.244 308.157C321.798 308.157 320.412 308.714 319.39 309.706C318.368 310.698 317.794 312.043 317.794 313.446C317.794 314.848 318.368 316.193 319.39 317.185C320.412 318.177 321.798 318.734 323.244 318.734H345.043C346.489 318.734 347.875 318.177 348.897 317.185C349.919 316.193 350.493 314.848 350.493 313.446C350.493 312.043 349.919 310.698 348.897 309.706C347.875 308.714 346.489 308.157 345.043 308.157H323.244Z" fill="#E6E6E6"/>
<path d="M323.244 340.071C321.798 340.071 320.412 340.628 319.39 341.62C318.368 342.612 317.794 343.957 317.794 345.36C317.794 346.762 318.368 348.107 319.39 349.099C320.412 350.091 321.798 350.648 323.244 350.648H345.043C346.489 350.648 347.875 350.091 348.897 349.099C349.919 348.107 350.493 346.762 350.493 345.36C350.493 343.957 349.919 342.612 348.897 341.62C347.875 340.628 346.489 340.071 345.043 340.071H323.244Z" fill="#E6E6E6"/>
<path d="M316.601 393.584C314.759 393.584 312.993 394.294 311.69 395.558C310.388 396.822 309.656 398.536 309.656 400.323C309.656 402.11 310.388 403.824 311.69 405.088C312.993 406.352 314.759 407.062 316.601 407.062H344.378C346.219 407.062 347.986 406.352 349.288 405.088C350.59 403.824 351.322 402.11 351.322 400.323C351.322 398.536 350.59 396.822 349.288 395.558C347.986 394.294 346.219 393.584 344.378 393.584H316.601Z" fill="#EF657C"/>
<path d="M350.392 375.547H144.845V377.32H350.392V375.547Z" fill="#E6E6E6"/>
<path d="M120.952 269.566C118.498 270.723 115.68 270.922 113.079 270.122C110.478 269.322 108.292 267.585 106.972 265.267L97.0615 247.864L106.928 240.342L122.754 252.043C124.201 253.113 125.342 254.525 126.068 256.144C126.793 257.764 127.079 259.536 126.898 261.293C126.718 263.05 126.076 264.733 125.035 266.181C123.994 267.629 122.589 268.795 120.952 269.566Z" fill="#A0616A"/>
<path d="M114.241 241.242L94.143 251.88L48.4658 175.641L43.202 108.598C42.6113 101.076 44.5401 93.5691 48.7012 87.1964C52.8623 80.8237 59.0331 75.9255 66.2948 73.2312L72.218 71.0334L75.8721 172.095L114.241 241.242Z" fill="#34B2B4"/>
<path d="M147.684 8.24314L147.978 12.53L145.704 6.6439C139.983 2.60871 133.146 0.333515 126.077 0.113082L126.077 0.113028C121.878 -0.292925 117.64 0.298308 113.728 1.83574C109.817 3.37317 106.35 5.81067 103.625 8.9381C100.901 12.0655 99.0011 15.789 98.0899 19.7876C97.1787 23.7861 97.2833 27.9397 98.3948 31.8903L98.711 35.5732L106.019 25.8217H106.019C109.311 22.9257 113.32 20.9074 117.655 19.9639C121.99 19.0203 126.503 19.1838 130.754 20.4383C133.947 21.3839 137.018 22.6824 139.905 24.3081C144.312 26.8692 148.289 30.0704 151.697 33.8002L152.332 29.611C156.599 21.8221 154.058 13.9152 147.684 8.24314Z" fill="#1A212F"/>
</g>
<defs>
<clipPath id="clip0">
<rect width="390.965" height="484.269" fill="white"/>
</clipPath>
</defs>
</svg>
