<svg width="752" height="407" viewBox="0 0 752 407" fill="none" xmlns="http://www.w3.org/2000/svg">
<path d="M253.559 349.445L244.968 345.478L239.075 298.246H160.6L154.213 345.285L146.527 349.5C146.16 349.701 145.865 350.033 145.691 350.442C145.516 350.85 145.473 351.311 145.567 351.75C145.662 352.189 145.889 352.58 146.211 352.86C146.533 353.14 146.932 353.292 147.344 353.292H252.851C253.272 353.292 253.68 353.132 254.006 352.839C254.333 352.547 254.556 352.139 254.64 351.686C254.723 351.233 254.661 350.763 254.464 350.354C254.267 349.946 253.947 349.625 253.559 349.445Z" fill="#E6E6E6"/>
<path d="M370.543 302.75H30.0448C22.1912 302.73 14.6653 299.295 9.11826 293.197C3.57122 287.099 0.456018 278.837 0.456055 270.223V236.695H400.132V270.223C400.132 278.837 397.017 287.099 391.47 293.197C385.923 299.295 378.397 302.73 370.543 302.75Z" fill="#CCCCCC"/>
<path d="M400.588 264.218H0V32.5269C0.00891786 23.9032 3.13627 15.6355 8.69597 9.53769C14.2557 3.43984 21.7937 0.00978106 29.6563 0H370.932C378.794 0.00976024 386.332 3.43982 391.892 9.53768C397.452 15.6355 400.579 23.9032 400.588 32.5269V264.218Z" fill="#E6E6E6"/>
<path d="M368.651 245.703H31.9376C27.9458 245.698 24.1188 243.957 21.2962 240.861C18.4736 237.765 16.8858 233.567 16.8813 229.189V35.0289C16.8858 30.6507 18.4736 26.4533 21.2962 23.3574C24.1188 20.2616 27.9458 18.5202 31.9376 18.5153H368.651C372.642 18.5202 376.469 20.2616 379.292 23.3574C382.115 26.4533 383.702 30.6507 383.707 35.0289V229.189C383.702 233.567 382.115 237.765 379.292 240.861C376.469 243.957 372.642 245.698 368.651 245.703Z" fill="white"/>
<path d="M220.651 117.635C220.651 117.666 220.652 117.698 220.654 117.729C221.584 133.768 228.048 148.816 238.732 159.813C249.417 170.811 263.519 176.932 278.172 176.932C292.825 176.932 306.927 170.811 317.612 159.813C328.296 148.816 334.761 133.767 335.69 117.729C335.702 117.531 335.677 117.332 335.616 117.145C335.554 116.957 335.458 116.786 335.334 116.642C335.212 116.498 335.063 116.383 334.899 116.305C334.734 116.226 334.556 116.187 334.377 116.187L221.968 116.187C221.618 116.188 221.283 116.341 221.037 116.613C220.79 116.884 220.651 117.252 220.651 117.635Z" fill="#1A212F"/>
<path d="M316.582 66.8769C316.582 67.3691 316.404 67.8411 316.087 68.1896L276.951 111.114C276.794 111.287 276.608 111.424 276.403 111.517C276.198 111.61 275.978 111.658 275.756 111.657H221.968C221.737 111.658 221.508 111.607 221.297 111.506C221.085 111.406 220.894 111.258 220.737 111.073C220.578 110.887 220.455 110.667 220.376 110.427C220.298 110.188 220.265 109.932 220.279 109.678C220.964 97.8686 224.637 86.5025 230.887 76.857C237.137 67.2114 245.716 59.6686 255.659 55.0761C265.602 50.4836 276.516 49.0233 287.175 50.8594C297.833 52.6955 307.813 57.7553 315.994 65.47C316.17 65.637 316.313 65.8419 316.414 66.0721C316.515 66.3023 316.572 66.5528 316.581 66.8081C316.582 66.8311 316.582 66.854 316.582 66.8769Z" fill="#E6E6E6"/>
<path d="M482.644 238.236C482.348 238.581 481.943 238.789 481.512 238.819C481.281 238.836 481.05 238.8 480.833 238.714C480.615 238.628 480.416 238.494 480.249 238.319L444.903 201.845C444.659 201.594 444.489 201.269 444.414 200.912C444.339 200.555 444.362 200.181 444.481 199.839C444.599 199.496 444.807 199.199 445.08 198.987C445.352 198.774 445.675 198.654 446.009 198.643L494.284 197.029C494.513 197.022 494.742 197.065 494.955 197.158C495.169 197.25 495.363 197.389 495.526 197.566C495.689 197.744 495.818 197.955 495.904 198.189C495.99 198.422 496.032 198.672 496.027 198.924C495.74 213.27 491.049 227.09 482.713 238.149C482.691 238.179 482.668 238.208 482.644 238.236Z" fill="#EF657C"/>
<path d="M258.117 202.227C258.096 204.472 257.468 206.66 256.313 208.514C255.158 210.369 253.528 211.805 251.629 212.643C249.729 213.481 247.646 213.683 245.642 213.222C243.638 212.762 241.804 211.66 240.371 210.056C238.939 208.451 237.972 206.417 237.593 204.211C237.214 202.004 237.44 199.724 238.243 197.658C239.046 195.592 240.389 193.834 242.103 192.606C243.817 191.377 245.825 190.734 247.872 190.757C250.616 190.791 253.236 192.018 255.157 194.168C257.077 196.319 258.142 199.217 258.117 202.227Z" fill="#34B2B4"/>
<path d="M287.691 202.559C287.67 204.805 287.042 206.993 285.888 208.847C284.733 210.701 283.102 212.138 281.203 212.976C279.304 213.814 277.22 214.016 275.216 213.555C273.213 213.094 271.378 211.992 269.945 210.388C268.513 208.784 267.546 206.75 267.167 204.543C266.788 202.337 267.015 200.056 267.817 197.991C268.62 195.925 269.964 194.167 271.677 192.938C273.391 191.71 275.399 191.067 277.446 191.09C280.19 191.124 282.81 192.351 284.731 194.501C286.651 196.651 287.716 199.549 287.691 202.559Z" fill="#EF657C"/>
<path d="M317.266 202.892C317.245 205.137 316.617 207.326 315.462 209.18C314.307 211.034 312.677 212.471 310.778 213.309C308.878 214.147 306.795 214.348 304.791 213.888C302.787 213.427 300.953 212.325 299.52 210.721C298.087 209.117 297.121 207.083 296.742 204.876C296.363 202.669 296.589 200.389 297.392 198.323C298.195 196.258 299.538 194.5 301.252 193.271C302.966 192.043 304.974 191.4 307.021 191.423C309.765 191.457 312.385 192.684 314.306 194.834C316.226 196.984 317.291 199.882 317.266 202.892Z" fill="#E6E6E6"/>
<path d="M167.408 80.2307L72.4339 79.162C71.5085 79.1508 70.5901 79.3397 69.7312 79.718C68.8724 80.0962 68.0899 80.6564 67.4285 81.3665C66.7672 82.0766 66.2399 82.9227 65.8768 83.8564C65.5137 84.7901 65.3219 85.7932 65.3124 86.8082C65.3029 87.8232 65.4759 88.8304 65.8214 89.7721C66.167 90.7138 66.6783 91.5715 67.3263 92.2963C67.9742 93.0211 68.7461 93.5988 69.5977 93.9963C70.4493 94.3938 71.3639 94.6034 72.2894 94.613L167.263 95.6817C168.189 95.6929 169.107 95.504 169.966 95.1257C170.825 94.7474 171.607 94.1872 172.269 93.4772C172.93 92.7671 173.457 91.921 173.821 90.9873C174.184 90.0536 174.375 89.0505 174.385 88.0355C174.394 87.0205 174.221 86.0133 173.876 85.0716C173.53 84.1299 173.019 83.2722 172.371 82.5474C171.723 81.8225 170.951 81.2449 170.1 80.8474C169.248 80.4499 168.333 80.2403 167.408 80.2307Z" fill="#E6E6E6"/>
<path d="M167.013 122.447L72.0395 121.378C70.4273 121.357 68.8573 121.943 67.592 123.039C66.3266 124.135 65.4426 125.674 65.0877 127.399C64.7328 129.124 64.9286 130.93 65.6423 132.516C66.356 134.101 67.5444 135.37 69.0087 136.11C69.9126 136.574 70.897 136.819 71.895 136.829L166.869 137.898C167.795 137.91 168.714 137.721 169.573 137.343C170.432 136.965 171.215 136.405 171.877 135.695C172.539 134.985 173.067 134.139 173.43 133.205C173.793 132.271 173.985 131.267 173.995 130.252C174.004 129.236 173.831 128.229 173.485 127.287C173.139 126.345 172.628 125.487 171.979 124.762C171.331 124.037 170.559 123.46 169.707 123.062C168.854 122.665 167.939 122.456 167.013 122.447V122.447Z" fill="#E6E6E6"/>
<path d="M166.618 164.663L71.6444 163.594C70.7189 163.583 69.8005 163.772 68.9417 164.15C68.0828 164.529 67.3003 165.089 66.639 165.799C65.9776 166.509 65.4503 167.355 65.0872 168.289C64.7241 169.223 64.5323 170.226 64.5228 171.241C64.5133 172.256 64.6863 173.263 65.0319 174.205C65.3774 175.146 65.8888 176.004 66.5367 176.729C67.1847 177.454 67.9565 178.031 68.8081 178.429C69.6597 178.826 70.5744 179.036 71.4998 179.045L166.474 180.114C167.4 180.126 168.318 179.937 169.178 179.559C170.037 179.181 170.82 178.621 171.482 177.911C172.144 177.201 172.671 176.355 173.035 175.421C173.398 174.487 173.59 173.483 173.6 172.468C173.609 171.453 173.436 170.445 173.09 169.503C172.744 168.561 172.233 167.703 171.584 166.978C170.936 166.253 170.163 165.676 169.311 165.279C168.459 164.881 167.544 164.672 166.618 164.663Z" fill="#E6E6E6"/>
<path d="M140.381 79.9266L72.4339 79.162C71.5085 79.1508 70.5901 79.3397 69.7312 79.718C68.8724 80.0962 68.0899 80.6564 67.4285 81.3665C66.7672 82.0766 66.2399 82.9227 65.8768 83.8564C65.5137 84.7901 65.3219 85.7932 65.3124 86.8082C65.3029 87.8232 65.4759 88.8304 65.8214 89.7721C66.167 90.7138 66.6783 91.5715 67.3263 92.2963C67.9742 93.0212 68.7461 93.5988 69.5977 93.9963C70.4493 94.3938 71.3639 94.6034 72.2894 94.613L138.82 95.3616C140.172 94.7719 141.352 93.7899 142.234 92.521C143.116 91.252 143.666 89.7439 143.827 88.158C143.987 86.5722 143.751 84.9684 143.144 83.5183C142.537 82.0683 141.582 80.8268 140.381 79.9266Z" fill="#84C2D7"/>
<path d="M108.607 121.79L72.0395 121.378C70.4273 121.357 68.8573 121.943 67.592 123.039C66.3266 124.135 65.4426 125.674 65.0877 127.399C64.7328 129.124 64.9286 130.93 65.6423 132.516C66.356 134.101 67.5444 135.37 69.0087 136.11L102.595 136.488C104.722 136.511 106.77 135.607 108.289 133.974C109.809 132.342 110.675 130.114 110.697 127.782C110.73 125.564 109.981 123.417 108.607 121.79Z" fill="#EF657C"/>
<path d="M159.522 164.583L71.6444 163.594C70.7189 163.583 69.8005 163.772 68.9417 164.15C68.0828 164.529 67.3003 165.089 66.639 165.799C65.9776 166.509 65.4503 167.355 65.0872 168.289C64.7241 169.223 64.5323 170.226 64.5228 171.241C64.5133 172.256 64.6863 173.263 65.0319 174.204C65.3774 175.146 65.8888 176.004 66.5367 176.729C67.1847 177.454 67.9565 178.031 68.8081 178.429C69.6597 178.826 70.5744 179.036 71.4998 179.045L159.944 180.041C161.197 179.249 162.231 178.099 162.936 176.713C163.641 175.328 163.99 173.759 163.947 172.174C163.904 170.588 163.47 169.045 162.69 167.708C161.911 166.372 160.816 165.292 159.522 164.583H159.522Z" fill="#34B2B4"/>
<path d="M526.655 395.402L516.384 395.401L511.499 351.946L526.659 351.947L526.655 395.402Z" fill="#A0616A"/>
<path d="M509.046 392.182H528.856V405.862H496.573C496.573 404.065 496.896 402.287 497.523 400.627C498.149 398.967 499.068 397.459 500.226 396.189C501.385 394.918 502.76 393.911 504.273 393.223C505.786 392.536 507.408 392.182 509.046 392.182Z" fill="#2F2E41"/>
<path d="M635.177 386.978L625.249 389.872L610.349 349.251L625.001 344.98L635.177 386.978Z" fill="#A0616A"/>
<path d="M617.405 388.828L636.55 383.247L639.754 396.468L608.554 405.562C607.704 402.056 608.159 398.323 609.819 395.184C611.479 392.046 614.208 389.759 617.405 388.828Z" fill="#2F2E41"/>
<path d="M570.517 79.001C582.705 79.001 592.586 68.1644 592.586 54.7967C592.586 41.4291 582.705 30.5925 570.517 30.5925C558.329 30.5925 548.449 41.4291 548.449 54.7967C548.449 68.1644 558.329 79.001 570.517 79.001Z" fill="#A0616A"/>
<path d="M613.379 376.956L581.16 306.766L550.955 230.794L536.491 295.736L534.277 372.946C534.252 374.01 533.876 375.029 533.219 375.813C532.562 376.597 531.669 377.094 530.704 377.212C523.159 378.179 510.4 379.023 509.715 373.811C500.3 302.236 501.684 261.542 504.503 240.007C507.573 216.555 512.844 210.171 513.067 209.91L513.217 209.735L591.781 217.615L592.081 217.645L613.193 292.713L638.41 368.472C638.604 369.053 638.684 369.673 638.646 370.291C638.608 370.908 638.453 371.51 638.19 372.058C637.927 372.606 637.562 373.087 637.12 373.471C636.677 373.855 636.166 374.133 635.619 374.287L617.997 379.257C617.673 379.349 617.339 379.395 617.004 379.395C616.253 379.394 615.518 379.166 614.878 378.736C614.238 378.305 613.72 377.689 613.379 376.956Z" fill="#1A212F"/>
<path d="M618.31 211.536L608.708 148.344L611.074 132.698C613.087 119.388 611.279 105.72 605.899 93.5864L592.638 162.547L609.592 214.348C608.241 215.924 607.401 217.944 607.201 220.095C607 222.247 607.451 224.412 608.484 226.255C609.517 228.097 611.074 229.516 612.915 230.292C614.756 231.068 616.779 231.158 618.671 230.548C620.563 229.938 622.219 228.661 623.384 226.916C624.549 225.171 625.159 223.053 625.118 220.891C625.076 218.728 624.388 216.64 623.157 214.95C621.927 213.259 620.224 212.06 618.31 211.536Z" fill="#A0616A"/>
<path d="M522.184 148.766L493.449 204.542C491.485 204.314 489.509 204.802 487.823 205.929C486.138 207.056 484.838 208.761 484.123 210.779C483.409 212.798 483.32 215.018 483.871 217.097C484.422 219.177 485.581 220.999 487.17 222.284C488.759 223.569 490.69 224.244 492.664 224.205C494.638 224.167 496.545 223.417 498.091 222.071C499.638 220.725 500.737 218.858 501.22 216.759C501.703 214.66 501.543 212.444 500.763 210.455L532.853 168.142L541.904 98.3673C533.064 107.75 527.102 119.915 524.841 133.177L522.184 148.766Z" fill="#A0616A"/>
<path d="M586.959 224.27L515.293 215.686C514.302 215.567 513.351 215.195 512.515 214.598C511.68 214.002 510.984 213.198 510.484 212.252C509.985 211.307 509.695 210.245 509.638 209.153C509.581 208.062 509.759 206.971 510.158 205.969L522.348 175.324C525.744 166.786 528.182 157.828 529.611 148.646L530.89 140.418C531.888 133.653 532.008 126.766 531.246 119.964C530.935 116.484 531.077 112.974 531.666 109.538C532.219 106.104 533.661 102.918 535.821 100.359C537.98 97.7998 540.765 95.9764 543.844 95.1063L556.895 91.404L557.251 90.3367C557.565 89.3898 558.131 88.5678 558.875 87.9767C559.619 87.3856 560.508 87.0525 561.426 87.0204C562.081 86.9895 562.734 87.1181 563.338 87.3972L569.466 90.1572L582.856 83.0126C583.285 82.7838 583.741 82.6229 584.211 82.5348C585.384 82.3115 586.592 82.5518 587.618 83.213C588.645 83.8743 589.425 84.9135 589.82 86.1461L589.956 86.5705L601.952 86.7245C604.683 86.7622 607.307 87.8932 609.33 89.9047C611.354 91.9163 612.637 94.6695 612.939 97.6464L613.821 106.415L597.811 163.039C593.426 178.618 592.339 195.09 594.634 211.199L595.157 214.842C595.324 216.01 595.26 217.205 594.967 218.344C594.674 219.483 594.16 220.538 593.46 221.439C592.76 222.339 591.891 223.062 590.912 223.56C589.933 224.057 588.868 224.316 587.789 224.319C587.512 224.319 587.235 224.302 586.959 224.27Z" fill="#2C3A47"/>
<path d="M601.615 100.962L609.643 99.6736L612.092 102.827C613.391 104.504 614.142 106.607 614.228 108.805L615.373 139.085C615.439 140.734 615.122 142.373 614.453 143.851C613.784 145.328 612.783 146.595 611.545 147.533L588.154 165.349L601.615 100.962Z" fill="#2C3A47"/>
<path d="M522.809 146.374C521.889 145.068 521.287 143.527 521.059 141.896C520.831 140.265 520.984 138.598 521.505 137.049L530.99 108.585C531.681 106.52 532.98 104.767 534.682 103.603L537.889 101.416L545.18 105.32L540.153 171.147L522.809 146.374Z" fill="#2C3A47"/>
<path d="M578.735 44.8484C572.572 50.9667 563.782 54.4939 555.763 52.093C547.744 49.6922 541.446 40.3034 543.368 31.4332C545.291 22.5629 556.66 17.549 562.822 23.6685C573.957 14.0096 591.862 15.6783 601.351 27.2595C610.84 38.8408 610.448 58.5447 600.506 69.6599C594.632 76.2271 583.62 75.8735 578.107 68.9408C572.593 62.0081 573.769 49.9941 578.735 44.8484Z" fill="#1A212F"/>
<path d="M751.101 407H408.772C408.534 407 408.305 406.896 408.137 406.711C407.968 406.527 407.874 406.276 407.874 406.015C407.874 405.753 407.968 405.503 408.137 405.318C408.305 405.133 408.534 405.029 408.772 405.029H751.101C751.34 405.029 751.568 405.133 751.737 405.318C751.905 405.503 752 405.753 752 406.015C752 406.276 751.905 406.527 751.737 406.711C751.568 406.896 751.34 407 751.101 407Z" fill="#CCCCCC"/>
<path d="M373.731 353.785H31.4014C31.1631 353.785 30.9346 353.681 30.7661 353.496C30.5976 353.311 30.5029 353.06 30.5029 352.799C30.5029 352.538 30.5976 352.287 30.7661 352.102C30.9346 351.917 31.1631 351.814 31.4014 351.814H373.731C373.969 351.814 374.198 351.917 374.366 352.102C374.535 352.287 374.629 352.538 374.629 352.799C374.629 353.06 374.535 353.311 374.366 353.496C374.198 353.681 373.969 353.785 373.731 353.785Z" fill="#CCCCCC"/>
</svg>
