<svg width="574" height="432" viewBox="0 0 574 432" fill="none" xmlns="http://www.w3.org/2000/svg">
<g clip-path="url(#clip0)">
<path d="M499.984 432C540.862 432 574 427.632 574 422.243C574 416.854 540.862 412.486 499.984 412.486C459.107 412.486 425.969 416.854 425.969 422.243C425.969 427.632 459.107 432 499.984 432Z" fill="#2C3A47"/>
<path d="M223.45 14.3167H0V155.922H223.45V14.3167Z" fill="#F2F2F2"/>
<path d="M237.544 0.520508H14.0938V142.126H237.544V0.520508Z" stroke="#3F3D56" stroke-width="2" stroke-miterlimit="10"/>
<path d="M160.14 105.666C166.877 98.8225 171.466 90.1028 173.324 80.6099C175.183 71.1171 174.229 61.2775 170.583 52.3354C166.937 43.3933 160.762 35.7504 152.84 30.3731C144.917 24.9959 135.603 22.1257 126.075 22.1257V71.0628L160.14 105.666Z" fill="#1A212F"/>
<path d="M126.075 22.1257C115.368 22.127 104.966 25.7516 96.5116 32.4271C88.0576 39.1027 82.0336 48.4487 79.3909 58.9893C76.7482 69.5299 77.6373 80.6644 81.9179 90.6345C86.1986 100.605 93.6267 108.842 103.029 114.046L126.075 71.0628V22.1257Z" fill="#34B2B4"/>
<path d="M160.14 105.667L126.075 71.063L103.029 114.046C112.165 119.095 122.663 121.007 132.956 119.497C143.249 117.987 152.785 113.135 160.14 105.667Z" fill="#EF657C"/>
<path d="M31.7748 112.711H22.5498V122.082H31.7748V112.711Z" fill="#34B2B4"/>
<path d="M45.1 112.711H35.875V122.082H45.1V112.711Z" fill="#1A212F"/>
<path d="M58.4252 112.711H49.2002V122.082H58.4252V112.711Z" fill="#EF657C"/>
<path d="M219.862 114.794H181.938V116.356H219.862V114.794Z" fill="#3F3D56"/>
<path d="M219.862 119.479H181.938V121.041H219.862V119.479Z" fill="#3F3D56"/>
<path d="M219.862 124.165H181.938V125.727H219.862V124.165Z" fill="#3F3D56"/>
<path d="M197.313 211.627H70.2129V353.232H197.313V211.627Z" fill="#F2F2F2"/>
<path d="M210.125 198.091H83.0254V339.696H210.125V198.091Z" stroke="#3F3D56" stroke-width="2" stroke-miterlimit="10"/>
<path d="M96.5404 323.721H89.6875V330.682H96.5404V323.721Z" fill="#34B2B4"/>
<path d="M106.439 323.721H99.5859V330.682H106.439V323.721Z" fill="#1A212F"/>
<path d="M116.337 323.721H109.484V330.682H116.337V323.721Z" fill="#EF657C"/>
<path d="M193.213 326.744H166.562V327.842H193.213V326.744Z" fill="#3F3D56"/>
<path d="M193.213 330.037H166.562V331.134H193.213V330.037Z" fill="#3F3D56"/>
<path d="M193.213 333.329H166.562V334.427H193.213V333.329Z" fill="#3F3D56"/>
<path d="M146.575 223.08V234.533C153.265 234.533 159.805 236.549 165.367 240.324C170.93 244.1 175.265 249.466 177.825 255.744C180.386 262.023 181.055 268.932 179.75 275.597C178.445 282.262 175.224 288.384 170.493 293.19L178.466 301.288C184.773 294.881 189.068 286.718 190.809 277.831C192.549 268.944 191.656 259.733 188.242 251.361C184.829 242.99 179.048 235.835 171.631 230.801C164.215 225.767 155.495 223.08 146.575 223.08Z" fill="#1A212F"/>
<path d="M178.466 301.288L170.493 293.19C164.71 299.065 157.027 302.613 148.866 303.175C140.706 303.737 132.621 301.275 126.11 296.247L119.286 305.368C127.969 312.071 138.748 315.352 149.629 314.602C160.51 313.852 170.754 309.122 178.466 301.288Z" fill="#EF657C"/>
<path d="M112.75 268.893C112.75 259.781 116.313 251.041 122.657 244.597C129 238.154 137.604 234.533 146.575 234.533V223.08C137.133 223.08 127.93 226.09 120.262 231.685C112.595 237.28 106.849 245.179 103.835 254.267C100.821 263.356 100.69 273.176 103.462 282.344C106.234 291.512 111.769 299.565 119.286 305.368L126.11 296.247C121.955 293.045 118.586 288.909 116.268 284.164C113.95 279.418 112.746 274.191 112.75 268.893Z" fill="#34B2B4"/>
<path d="M477.457 73.402C477.457 73.402 475.366 89.1819 480.744 91.0027C486.121 92.8235 484.627 106.783 484.627 106.783L468.495 119.224L454.156 120.438L450.571 101.624L452.662 96.7684C452.662 96.7684 460.728 87.0577 455.052 77.0435C449.376 67.0294 477.457 73.402 477.457 73.402Z" fill="#FFB9B9"/>
<path opacity="0.1" d="M477.457 73.402C477.457 73.402 475.366 89.1819 480.744 91.0027C486.121 92.8235 484.627 106.783 484.627 106.783L468.495 119.224L454.156 120.438L450.571 101.624L452.662 96.7684C452.662 96.7684 460.728 87.0577 455.052 77.0435C449.376 67.0294 477.457 73.402 477.457 73.402Z" fill="black"/>
<path d="M462.521 196.303L443.7 241.215C443.7 241.215 429.062 232.719 420.399 233.629C411.736 234.539 400.981 223.918 400.981 223.918L411.736 171.116L431.751 114.976L459.533 132.88L462.521 196.303Z" fill="#1A212F"/>
<path d="M492.095 387.18V401.746H478.652L480.743 384.752L492.095 387.18Z" fill="#EF657C"/>
<path d="M527.047 361.993L536.906 368.062L529.736 384.752L522.268 383.842L515.098 373.524L527.047 361.993Z" fill="#EF657C"/>
<path d="M494.784 192.055L512.409 234.236C512.409 234.236 506.136 280.969 506.435 284.914C506.733 288.859 507.032 290.376 505.538 293.714C504.045 297.052 503.447 299.176 504.343 303.121C505.24 307.066 505.538 308.584 504.941 310.101C504.343 311.618 500.161 374.131 498.07 378.379C495.979 382.628 499.265 389.607 497.174 390.214C495.083 390.821 479.549 389.304 478.652 385.662C477.756 382.021 481.64 373.221 479.549 370.489C477.457 367.758 479.847 269.437 476.86 262.761C473.873 256.085 441.012 250.016 441.012 250.016C441.012 250.016 438.024 230.594 439.817 227.56C441.609 224.525 443.999 205.407 443.999 205.407L494.784 192.055Z" fill="#314150"/>
<path d="M477.457 399.318C477.457 399.318 485.822 389.304 492.991 399.318C492.991 399.318 493.589 411.153 498.667 413.581C503.746 416.009 501.356 425.719 494.186 426.023C487.017 426.326 477.756 427.54 477.457 423.595C477.158 419.65 478.652 417.222 475.963 416.009C473.275 414.795 475.963 407.815 475.963 407.815L477.457 399.318Z" fill="#314150"/>
<path d="M478.353 254.264C478.353 254.264 478.055 276.113 475.963 279.148C473.872 282.182 472.677 284.003 473.872 287.341C475.067 290.679 476.86 296.749 475.963 297.962C475.067 299.176 476.86 305.549 476.86 305.549C476.86 305.549 499.862 316.777 510.617 340.143C510.617 340.143 521.67 358.654 524.956 358.958C528.242 359.261 532.125 356.834 530.333 363.813C528.541 370.793 521.67 379.897 516.591 378.986C511.513 378.076 507.629 369.275 507.629 369.275C507.629 369.275 467.898 328.308 463.715 327.095C459.533 325.881 447.584 316.17 445.492 310.101C443.401 304.032 438.92 253.354 441.011 250.016C443.103 246.678 450.87 242.126 450.87 242.126L478.353 254.264Z" fill="#314150"/>
<path d="M530.035 360.779C530.035 360.779 548.556 361.385 548.855 365.937C549.153 370.489 541.088 397.497 542.283 403.87C543.478 410.243 533.022 424.809 526.151 421.774C519.28 418.739 524.657 402.96 524.657 402.96C524.657 402.96 517.786 381.414 518.981 381.11C520.176 380.807 532.126 377.165 531.528 373.524C530.931 369.882 530.035 360.779 530.035 360.779Z" fill="#314150"/>
<path d="M463.566 89.6371C473.796 89.6371 482.088 81.2136 482.088 70.8226C482.088 60.4316 473.796 52.0081 463.566 52.0081C453.337 52.0081 445.045 60.4316 445.045 70.8226C445.045 81.2136 453.337 89.6371 463.566 89.6371Z" fill="#FFB9B9"/>
<path d="M482.238 99.8031C482.238 99.8031 472.081 110.728 464.612 108.907C457.144 107.086 453.26 94.0374 453.26 94.0374L439.817 91.6097C439.817 91.6097 430.258 134.701 430.258 138.949C430.258 143.198 439.817 189.02 439.817 197.214C439.817 205.407 432.05 210.262 444 209.959C455.949 209.656 450.273 205.711 467.6 205.407C484.926 205.104 487.615 209.049 491.2 202.676C493.645 198.518 496.662 194.737 500.162 191.448L493.888 168.992L492.992 105.569C492.992 105.569 485.333 90.3958 481.844 91.6097C481.844 91.6097 483.731 98.2858 482.238 99.8031Z" fill="#EF657C"/>
<path d="M478.558 88.9258C478.558 88.9258 494.485 90.6993 498.966 94.0374C503.447 97.3755 515.994 99.8031 515.696 102.231C515.397 104.659 501.058 139.253 501.058 139.253C501.058 139.253 494.485 166.564 500.161 172.937C505.837 179.31 527.047 248.802 523.463 254.568C519.878 260.333 508.526 236.967 508.526 236.967C508.526 236.967 493.29 186.896 484.926 178.399C476.561 169.902 475.964 124.08 475.964 121.956C475.964 119.832 478.558 88.9258 478.558 88.9258Z" fill="#1A212F"/>
<path d="M455.26 92.4455C455.26 92.4455 435.635 84.9336 428.764 87.9682C421.893 91.0028 417.711 91.6097 417.711 91.6097L415.321 121.349C415.321 121.349 414.425 164.137 406.658 174.454C398.891 184.772 393.812 227.863 395.007 232.112C396.202 236.36 392.916 243.643 397.994 241.822C403.073 240.002 417.113 198.124 417.113 198.124C417.113 198.124 417.113 174.151 425.478 167.475C433.842 160.799 447.584 133.184 448.182 126.508C448.779 119.831 454.455 101.32 454.455 101.32L455.26 92.4455Z" fill="#1A212F"/>
<path d="M522.566 188.11C522.566 188.11 513.604 205.104 512.41 208.138C511.215 211.173 502.85 231.808 490.901 227.256C478.951 222.704 502.551 200.552 502.551 200.552L507.929 182.041C507.929 182.041 521.969 179.006 522.566 188.11Z" fill="#FFB9B9"/>
<path d="M420.698 91.6096H417.711C417.711 91.6096 414.723 89.182 411.139 90.6993C407.554 92.2166 399.189 90.0923 399.189 91.0027C399.189 91.9131 389.928 88.2716 386.045 90.0923C382.161 91.9131 368.121 92.52 368.121 92.52C368.121 92.52 362.445 107.086 366.328 109.817C370.212 112.548 375.888 110.424 378.577 112.548C381.265 114.673 386.344 112.245 388.136 114.976C389.928 117.707 396.501 122.563 397.994 119.528C399.488 116.493 396.501 113.762 402.774 117.1C409.047 120.438 418.906 120.438 418.906 120.438L420.698 91.6096Z" fill="#1A212F"/>
<path d="M465.236 56.9215C462.73 56.3333 460.128 56.9852 457.59 57.4077C455.051 57.8303 452.254 57.9697 450.106 56.5309C448.52 55.4683 447.545 53.7105 446.63 52.0196C446.248 51.4157 445.993 50.738 445.882 50.0291C445.774 48.7785 446.557 47.6376 447.389 46.709C451.252 42.3959 456.896 40.0352 462.589 39.2854C467.268 38.669 472.147 39.0818 476.468 41.007C480.789 42.9323 484.504 46.4579 486.203 50.9297C486.985 53.2183 487.474 55.5999 487.657 58.0156C487.913 59.7929 487.946 61.5962 487.755 63.382C487.526 64.7058 487.183 66.0067 486.731 67.2698L483.917 75.9019C483.714 76.7176 483.336 77.4776 482.81 78.127C482.54 78.4451 482.175 78.6656 481.771 78.7556C481.367 78.8455 480.945 78.8 480.568 78.626C480.793 77.6884 480.828 76.7139 480.669 75.7624C480.581 75.2882 480.355 74.8516 480.021 74.5089C479.686 74.1662 479.258 73.9331 478.792 73.8397C477.755 73.7279 476.869 74.5447 475.885 74.8965C475.411 75.039 474.914 75.0804 474.424 75.0182C473.935 74.956 473.463 74.7915 473.039 74.5351C472.615 74.2786 472.247 73.9357 471.96 73.528C471.673 73.1203 471.471 72.6565 471.369 72.166C471.214 71.1791 471.475 70.1227 471.106 69.1959C470.675 68.1101 469.531 67.5411 468.671 66.7609C467.887 66.0257 467.326 65.0783 467.053 64.0301C466.781 62.982 466.809 61.8766 467.133 60.8439C467.363 60.1255 468.013 59.7989 467.883 58.9736C467.713 57.8909 466.141 57.134 465.236 56.9215Z" fill="#2F2E41"/>
<path d="M386.938 123.124H259.838V264.729H386.938V123.124Z" fill="#F2F2F2"/>
<path d="M399.75 109.588H272.65V251.193H399.75V109.588Z" stroke="#3F3D56" stroke-width="2" stroke-miterlimit="10"/>
<path d="M284.95 118.438V226.724H387.963" stroke="#3F3D56" stroke-width="2" stroke-miterlimit="10"/>
<path d="M313.65 188.72H290.588V226.204H313.65V188.72Z" fill="#EF657C"/>
<path d="M346.963 163.21H323.9V226.204H346.963V163.21Z" fill="#1A212F"/>
<path d="M380.275 133.536H357.213V226.204H380.275V133.536Z" fill="#34B2B4"/>
<path d="M290.265 235.218H283.412V242.179H290.265V235.218Z" fill="#34B2B4"/>
<path d="M300.164 235.218H293.312V242.179H300.164V235.218Z" fill="#1A212F"/>
<path d="M310.063 235.218H303.21V242.179H310.063V235.218Z" fill="#EF657C"/>
<path d="M386.937 238.241H360.287V239.338H386.937V238.241Z" fill="#3F3D56"/>
<path d="M386.937 241.533H360.287V242.631H386.937V241.533Z" fill="#3F3D56"/>
<path d="M386.937 244.826H360.287V245.923H386.937V244.826Z" fill="#3F3D56"/>
<path d="M371.208 92.5026C376.655 92.7431 380.702 97.7611 380.113 103.267C379.579 108.255 377.61 114.463 371.407 116.847C360.354 121.095 360.951 97.1219 363.042 96.2115C364.437 95.6046 366.627 92.3003 371.208 92.5026Z" fill="#FFB9B9"/>
<path d="M512.409 100.61L515.695 102.231C515.695 102.231 522.865 117.1 523.164 119.225C523.462 121.349 528.242 129.239 526.45 131.363C524.657 133.487 521.969 138.95 523.761 141.074C525.553 143.198 529.736 151.695 529.736 154.729C529.736 157.764 525.255 165.957 528.242 166.868C531.229 167.778 530.333 179.613 529.736 180.524C529.138 181.434 521.371 196.303 521.371 196.303C521.371 196.303 519.877 179.31 505.24 186.289C505.24 186.289 504.045 177.792 505.24 177.185C506.434 176.579 509.422 172.937 507.032 172.33C504.642 171.723 501.356 164.44 501.953 163.53C502.551 162.619 504.045 161.406 502.551 160.495C501.057 159.585 499.862 154.426 500.161 153.516C500.46 152.605 496.875 148.357 496.875 148.357L512.409 100.61Z" fill="#1A212F"/>
</g>
<defs>
<clipPath id="clip0">
<rect width="574" height="432" fill="white"/>
</clipPath>
</defs>
</svg>
