<svg width="581" height="383" viewBox="0 0 581 383" fill="none" xmlns="http://www.w3.org/2000/svg">
<g clip-path="url(#clip0)">
<path d="M467.978 0.230225H0.200195V260.336H467.978V0.230225Z" fill="#E6E6E6"/>
<path d="M454.602 32.854H13.5762V244.948H454.602V32.854Z" fill="white"/>
<path d="M467.778 0H0V17.254H467.778V0Z" fill="#1A212F"/>
<path d="M14.7683 12.0191C16.8025 12.0191 18.4515 10.5873 18.4515 8.82119C18.4515 7.05504 16.8025 5.62329 14.7683 5.62329C12.734 5.62329 11.085 7.05504 11.085 8.82119C11.085 10.5873 12.734 12.0191 14.7683 12.0191Z" fill="white"/>
<path d="M28.7487 12.0191C30.783 12.0191 32.432 10.5873 32.432 8.82119C32.432 7.05504 30.783 5.62329 28.7487 5.62329C26.7145 5.62329 25.0654 7.05504 25.0654 8.82119C25.0654 10.5873 26.7145 12.0191 28.7487 12.0191Z" fill="white"/>
<path d="M42.7302 12.0191C44.7644 12.0191 46.4135 10.5873 46.4135 8.82119C46.4135 7.05504 44.7644 5.62329 42.7302 5.62329C40.6959 5.62329 39.0469 7.05504 39.0469 8.82119C39.0469 10.5873 40.6959 12.0191 42.7302 12.0191Z" fill="white"/>
<path d="M166.972 54.8605H53.6494V222.942H166.972V54.8605Z" fill="#E6E6E6"/>
<path d="M280.969 54.8605H186.533V101.127H280.969V54.8605Z" fill="#34B2B4"/>
<path d="M280.969 114.011H186.533V163.791H280.969V114.011Z" fill="#E6E6E6"/>
<path d="M280.969 176.675H186.533V222.942H280.969V176.675Z" fill="#E6E6E6"/>
<path d="M414.529 54.8605H301.206V128.109H414.529V54.8605Z" fill="#E6E6E6"/>
<path d="M414.529 149.693H301.206V222.942H414.529V149.693Z" fill="#EF657C"/>
<path d="M535.182 130.368C527.707 119.307 512.918 118.792 512.918 118.792C512.918 118.792 498.507 117.178 489.263 134.024C480.646 149.726 468.754 164.887 487.348 168.562L490.707 159.408L492.787 169.244C495.434 169.411 498.09 169.45 500.743 169.363C520.656 168.8 539.62 169.528 539.009 163.27C538.197 154.951 542.375 141.011 535.182 130.368Z" fill="#1A212F"/>
<path d="M464.296 189.426L457.757 203.934L425.064 230.427C425.064 230.427 405.448 243.042 414.166 246.827C422.884 250.611 430.876 232.95 430.876 232.95L465.749 214.657L473.014 193.841L464.296 189.426Z" fill="#FFB8B8"/>
<path d="M475.193 350.274L481.732 364.782H491.177L483.185 347.751L475.193 350.274Z" fill="#FFB8B8"/>
<path d="M503.527 356.582L510.066 371.09H519.511L511.519 354.059L503.527 356.582Z" fill="#FFB8B8"/>
<path d="M502.801 359.105L515.152 356.582L499.168 300.443L504.475 257.247L504.617 257.234C504.617 257.234 513.699 226.642 506.434 218.442C499.168 210.242 462.842 213.395 462.842 213.395C462.842 213.395 449.038 225.38 449.765 252.504C450.492 279.627 449.765 302.966 454.851 313.689C459.936 324.412 474.467 352.797 474.467 352.797L486.091 351.536L473.74 304.858L471.765 264.282C473.337 280.542 476.5 311.375 478.099 313.689C480.279 316.843 502.801 359.105 502.801 359.105Z" fill="#1A212F"/>
<path d="M539.854 202.672L544.939 218.442L567.461 253.765C567.461 253.765 587.077 268.904 579.086 270.796C571.094 272.688 558.743 256.919 558.743 256.919L533.315 226.011L526.776 203.303L539.854 202.672Z" fill="#FFB8B8"/>
<path d="M513.699 157.887C523.73 157.887 531.862 150.827 531.862 142.118C531.862 133.408 523.73 126.348 513.699 126.348C503.668 126.348 495.536 133.408 495.536 142.118C495.536 150.827 503.668 157.887 513.699 157.887Z" fill="#FFB8B8"/>
<path d="M504.254 150.318L499.895 162.303L492.63 176.18L519.511 166.718C519.511 166.718 518.058 156.626 519.511 154.102L504.254 150.318Z" fill="#FFB8B8"/>
<path d="M535.495 175.549L518.785 163.564L499.895 170.503L500.635 160.268L480.481 165.856L477.373 166.718L473.014 186.272C473.014 186.272 470.108 188.164 467.202 198.887C465.524 205.189 463.089 211.32 459.937 217.18C459.937 217.18 491.177 206.457 506.434 220.965C506.434 220.965 508.613 219.703 507.887 217.811C507.16 215.918 514.426 206.457 514.426 206.457C514.426 206.457 514.426 208.349 517.332 204.564C520.238 200.78 522.417 200.149 522.417 200.149L535.495 175.549Z" fill="#84C2D7"/>
<path d="M481.732 168.61L478.559 166.389C478.559 166.389 475.92 165.456 473.74 168.61C471.561 171.764 460.663 191.318 460.663 191.318L473.74 196.995L481.732 168.61Z" fill="#84C2D7"/>
<path d="M525.323 174.918L535.494 175.549C535.494 175.549 541.306 178.072 541.306 181.857C541.306 185.641 542.759 205.826 542.759 205.826L526.776 210.242L520.237 192.58L525.323 174.918Z" fill="#84C2D7"/>
<path d="M479.632 362.574L467.282 366.99C467.282 366.99 452.751 367.62 454.931 373.928C457.11 380.236 478.906 375.82 478.906 375.82C478.906 375.82 498.522 376.451 498.522 372.036C498.522 367.62 495.616 362.574 492.71 362.574H479.632Z" fill="#2F2E41"/>
<path d="M507.241 368.251L494.89 372.667C494.89 372.667 480.36 373.297 482.539 379.605C484.719 385.913 506.514 381.498 506.514 381.498C506.514 381.498 526.13 382.128 526.13 377.713C526.13 373.297 523.224 368.251 520.318 368.251H507.241Z" fill="#2F2E41"/>
<path d="M531.878 129.302L517.267 122.6L497.091 125.342L492.916 141.488L503.307 141.138L506.211 135.206V141.04L511.006 140.879L513.788 131.435L515.528 141.488L532.574 141.183L531.878 129.302Z" fill="#1A212F"/>
<path d="M434.153 52.6991C419.62 42.0518 401.836 35.3016 382.964 33.2698C364.093 31.238 344.948 34.0122 327.86 41.255C310.771 48.4977 296.476 59.8966 286.713 74.0647C276.95 88.2327 272.141 104.559 272.87 121.057C273.6 137.555 279.836 153.513 290.822 166.989C301.807 180.466 317.067 190.88 334.744 196.964C352.422 203.048 371.756 204.539 390.392 201.257C409.029 197.975 426.165 190.061 439.715 178.478L560.04 266.627C560.947 267.292 561.996 267.795 563.127 268.108C564.259 268.421 565.45 268.537 566.633 268.45C567.816 268.363 568.967 268.075 570.022 267.602C571.076 267.128 572.013 266.479 572.779 265.691C573.544 264.904 574.124 263.993 574.484 263.01C574.844 262.028 574.978 260.994 574.877 259.967C574.777 258.94 574.445 257.94 573.899 257.025C573.354 256.109 572.606 255.296 571.699 254.631L451.374 166.481C465.352 149.064 471.334 127.742 468.149 106.694C464.963 85.6465 452.84 66.3903 434.153 52.6991ZM426.397 157.993C417.023 167.638 404.565 174.654 390.599 178.152C376.633 181.65 361.786 181.474 347.935 177.646C334.085 173.818 321.852 166.51 312.785 156.646C303.719 146.782 298.224 134.806 296.997 122.231C295.77 109.656 298.865 97.0471 305.892 85.9995C312.918 74.952 323.56 65.9615 336.472 60.165C349.383 54.3685 363.985 52.0264 378.429 53.4348C392.874 54.8432 406.514 59.9388 417.623 68.0774C432.52 78.9908 441.813 94.5951 443.458 111.458C445.104 128.32 438.967 145.06 426.397 157.993Z" fill="#1A212F"/>
<path opacity="0.3" d="M322.833 165.611C308.734 155.281 299.625 140.726 297.315 124.835C295.005 108.944 299.662 92.8799 310.362 79.8323C308.957 81.0609 307.598 82.3477 306.287 83.6926C300.062 90.0966 295.351 97.5025 292.423 105.487C289.495 113.472 288.407 121.88 289.221 130.229C290.036 138.579 292.736 146.708 297.169 154.152C301.602 161.595 307.68 168.208 315.057 173.612C322.434 179.016 330.964 183.106 340.161 185.647C349.358 188.189 359.042 189.133 368.659 188.425C378.276 187.718 387.638 185.372 396.212 181.523C404.785 177.673 412.401 172.396 418.624 165.991C419.933 164.644 421.165 163.265 422.322 161.854C409.308 173.206 391.853 179.895 373.422 180.591C354.991 181.287 336.933 175.94 322.833 165.611Z" fill="black"/>
</g>
<defs>
<clipPath id="clip0">
<rect width="581" height="383" fill="white"/>
</clipPath>
</defs>
</svg>
