<svg width="47" height="53" viewBox="0 0 47 53" fill="none" xmlns="http://www.w3.org/2000/svg">
<path fill-rule="evenodd" clip-rule="evenodd" d="M39.167 4.41667H15.667C13.5128 4.41667 11.7503 6.40417 11.7503 8.83334V35.3333C11.7503 37.7625 13.5128 39.75 15.667 39.75H39.167C41.3212 39.75 43.0837 37.7625 43.0837 35.3333V8.83334C43.0837 6.40417 41.3212 4.41667 39.167 4.41667ZM5.87533 13.25C4.79824 13.25 3.91699 14.2438 3.91699 15.4583V44.1667C3.91699 46.5958 5.67949 48.5833 7.83366 48.5833H33.292C34.3691 48.5833 35.2503 47.5896 35.2503 46.375C35.2503 45.1604 34.3691 44.1667 33.292 44.1667H9.79199C8.71491 44.1667 7.83366 43.1729 7.83366 41.9583V15.4583C7.83366 14.2438 6.95241 13.25 5.87533 13.25ZM19.5837 24.2917H35.2503C36.3274 24.2917 37.2087 23.2979 37.2087 22.0833C37.2087 20.8688 36.3274 19.875 35.2503 19.875H19.5837C18.5066 19.875 17.6253 20.8688 17.6253 22.0833C17.6253 23.2979 18.5066 24.2917 19.5837 24.2917ZM27.417 33.125H19.5837C18.5066 33.125 17.6253 32.1313 17.6253 30.9167C17.6253 29.7021 18.5066 28.7083 19.5837 28.7083H27.417C28.4941 28.7083 29.3753 29.7021 29.3753 30.9167C29.3753 32.1313 28.4941 33.125 27.417 33.125ZM19.5837 15.4583H35.2503C36.3274 15.4583 37.2087 14.4646 37.2087 13.25C37.2087 12.0354 36.3274 11.0417 35.2503 11.0417H19.5837C18.5066 11.0417 17.6253 12.0354 17.6253 13.25C17.6253 14.4646 18.5066 15.4583 19.5837 15.4583Z" fill="white"/>
</svg>
