<svg width="43" height="31" viewBox="0 0 43 31" fill="none" xmlns="http://www.w3.org/2000/svg">
<line x1="41.5" y1="1" x2="41.5" y2="30" stroke="#EEEEEE" stroke-width="3"/>
<path d="M31.928 12.644H29.048V11.6H35.996V12.644H33.116V20H31.928V12.644Z" fill="#EEEEEE"/>
<line x1="40" y1="28.5" x2="22" y2="28.5" stroke="#EEEEEE" stroke-width="3"/>
<line x1="22.5" y1="1" x2="22.5" y2="30" stroke="#EEEEEE" stroke-width="3"/>
<line y1="-1.5" x2="29.5382" y2="-1.5" transform="matrix(-0.0127271 0.999919 -0.999507 -0.0314109 0.375977 0)" stroke="#EEEEEE" stroke-width="3"/>
<line y1="-1.5" x2="14.15" y2="-1.5" transform="matrix(-0.999991 0.00428933 -0.00354383 -0.999994 14.1499 27)" stroke="#EEEEEE" stroke-width="3"/>
<path d="M24 1.49999L1.7851 1.49999" stroke="#EEEEEE" stroke-width="3"/>
<path d="M43 1.5L31.5364 1.5" stroke="#EEEEEE" stroke-width="3"/>
<path d="M13.912 15.644C14.4 15.78 14.784 16.028 15.064 16.388C15.344 16.74 15.484 17.188 15.484 17.732C15.484 18.46 15.208 19.02 14.656 19.412C14.112 19.804 13.316 20 12.268 20H8.26V11.6H12.028C12.988 11.6 13.728 11.792 14.248 12.176C14.776 12.56 15.04 13.092 15.04 13.772C15.04 14.212 14.936 14.592 14.728 14.912C14.528 15.232 14.256 15.476 13.912 15.644ZM9.46 12.572V15.26H11.92C12.536 15.26 13.008 15.148 13.336 14.924C13.672 14.692 13.84 14.356 13.84 13.916C13.84 13.476 13.672 13.144 13.336 12.92C13.008 12.688 12.536 12.572 11.92 12.572H9.46ZM12.22 19.028C12.9 19.028 13.412 18.916 13.756 18.692C14.1 18.468 14.272 18.116 14.272 17.636C14.272 16.7 13.588 16.232 12.22 16.232H9.46V19.028H12.22Z" fill="#EEEEEE"/>
</svg>
