<svg width="187" height="54" viewBox="0 0 187 54" fill="none" xmlns="http://www.w3.org/2000/svg">
<line x1="185.29" y1="4.22849e-10" x2="185.29" y2="53.125" stroke="white" stroke-width="3"/>
<path d="M84.856 19.288H79.096V17.2H92.992V19.288H87.232V34H84.856V19.288ZM98.8533 23.416C99.2533 22.68 99.8453 22.12 100.629 21.736C101.413 21.352 102.365 21.16 103.485 21.16V23.392C103.357 23.376 103.181 23.368 102.957 23.368C101.709 23.368 100.725 23.744 100.005 24.496C99.3013 25.232 98.9493 26.288 98.9493 27.664V34H96.6453V21.28H98.8533V23.416ZM112.614 21.16C114.374 21.16 115.718 21.592 116.646 22.456C117.59 23.32 118.062 24.608 118.062 26.32V34H115.878V32.32C115.494 32.912 114.942 33.368 114.222 33.688C113.518 33.992 112.678 34.144 111.702 34.144C110.278 34.144 109.134 33.8 108.27 33.112C107.422 32.424 106.998 31.52 106.998 30.4C106.998 29.28 107.406 28.384 108.222 27.712C109.038 27.024 110.334 26.68 112.11 26.68H115.758V26.224C115.758 25.232 115.47 24.472 114.894 23.944C114.318 23.416 113.47 23.152 112.35 23.152C111.598 23.152 110.862 23.28 110.142 23.536C109.422 23.776 108.814 24.104 108.318 24.52L107.358 22.792C108.014 22.264 108.798 21.864 109.71 21.592C110.622 21.304 111.59 21.16 112.614 21.16ZM112.086 32.368C112.966 32.368 113.726 32.176 114.366 31.792C115.006 31.392 115.47 30.832 115.758 30.112V28.336H112.206C110.254 28.336 109.278 28.992 109.278 30.304C109.278 30.944 109.526 31.448 110.022 31.816C110.518 32.184 111.206 32.368 112.086 32.368ZM129.62 34.144C128.324 34.144 127.164 33.864 126.14 33.304C125.132 32.744 124.34 31.976 123.764 31C123.188 30.008 122.9 28.888 122.9 27.64C122.9 26.392 123.188 25.28 123.764 24.304C124.34 23.312 125.132 22.544 126.14 22C127.164 21.44 128.324 21.16 129.62 21.16C130.772 21.16 131.796 21.392 132.692 21.856C133.604 22.32 134.308 22.992 134.804 23.872L133.052 25C132.652 24.392 132.156 23.936 131.564 23.632C130.972 23.328 130.316 23.176 129.596 23.176C128.764 23.176 128.012 23.36 127.34 23.728C126.684 24.096 126.164 24.624 125.78 25.312C125.412 25.984 125.228 26.76 125.228 27.64C125.228 28.536 125.412 29.328 125.78 30.016C126.164 30.688 126.684 31.208 127.34 31.576C128.012 31.944 128.764 32.128 129.596 32.128C130.316 32.128 130.972 31.976 131.564 31.672C132.156 31.368 132.652 30.912 133.052 30.304L134.804 31.408C134.308 32.288 133.604 32.968 132.692 33.448C131.796 33.912 130.772 34.144 129.62 34.144ZM144.246 28.072L141.606 30.52V34H139.302V16.192H141.606V27.616L148.542 21.28H151.326L145.974 26.536L151.854 34H149.022L144.246 28.072ZM166.728 27.712C166.728 27.888 166.712 28.12 166.68 28.408H156.36C156.504 29.528 156.992 30.432 157.824 31.12C158.672 31.792 159.72 32.128 160.968 32.128C162.488 32.128 163.712 31.616 164.64 30.592L165.912 32.08C165.336 32.752 164.616 33.264 163.752 33.616C162.904 33.968 161.952 34.144 160.896 34.144C159.552 34.144 158.36 33.872 157.32 33.328C156.28 32.768 155.472 31.992 154.896 31C154.336 30.008 154.056 28.888 154.056 27.64C154.056 26.408 154.328 25.296 154.872 24.304C155.432 23.312 156.192 22.544 157.152 22C158.128 21.44 159.224 21.16 160.44 21.16C161.656 21.16 162.736 21.44 163.68 22C164.64 22.544 165.384 23.312 165.912 24.304C166.456 25.296 166.728 26.432 166.728 27.712ZM160.44 23.104C159.336 23.104 158.408 23.44 157.656 24.112C156.92 24.784 156.488 25.664 156.36 26.752H164.52C164.392 25.68 163.952 24.808 163.2 24.136C162.464 23.448 161.544 23.104 160.44 23.104ZM173.816 23.416C174.216 22.68 174.808 22.12 175.592 21.736C176.376 21.352 177.328 21.16 178.448 21.16V23.392C178.32 23.376 178.144 23.368 177.92 23.368C176.672 23.368 175.688 23.744 174.968 24.496C174.264 25.232 173.912 26.288 173.912 27.664V34H171.608V21.28H173.816V23.416Z" fill="#EEEEEE"/>
<line x1="186.632" y1="51.5" x2="67.2632" y2="51.5" stroke="white" stroke-width="3"/>
<line x1="65.921" x2="65.921" y2="53.125" stroke="white" stroke-width="3"/>
<line y1="-1.5" x2="53.129" y2="-1.5" transform="matrix(-0.0140017 0.999902 -0.999592 -0.0285535 0.743896 0)" stroke="white" stroke-width="3"/>
<line y1="-1.5" x2="50.2104" y2="-1.5" transform="matrix(-0.999998 0.00217415 -0.00179833 -0.999998 50.2106 50)" stroke="white" stroke-width="3"/>
<line x1="67.2632" y1="1.5" x2="2.84212" y2="1.49999" stroke="white" stroke-width="3"/>
<line x1="186.632" y1="1.5" x2="78.6316" y2="1.5" stroke="white" stroke-width="3"/>
<path d="M24.824 25.288C25.8 25.56 26.568 26.056 27.128 26.776C27.688 27.48 27.968 28.376 27.968 29.464C27.968 30.92 27.416 32.04 26.312 32.824C25.224 33.608 23.632 34 21.536 34H13.52V17.2H21.056C22.976 17.2 24.456 17.584 25.496 18.352C26.552 19.12 27.08 20.184 27.08 21.544C27.08 22.424 26.872 23.184 26.456 23.824C26.056 24.464 25.512 24.952 24.824 25.288ZM15.92 19.144V24.52H20.84C22.072 24.52 23.016 24.296 23.672 23.848C24.344 23.384 24.68 22.712 24.68 21.832C24.68 20.952 24.344 20.288 23.672 19.84C23.016 19.376 22.072 19.144 20.84 19.144H15.92ZM21.44 32.056C22.8 32.056 23.824 31.832 24.512 31.384C25.2 30.936 25.544 30.232 25.544 29.272C25.544 27.4 24.176 26.464 21.44 26.464H15.92V32.056H21.44ZM33.0281 21.28H35.3321V34H33.0281V21.28ZM34.1801 18.832C33.7321 18.832 33.3561 18.688 33.0521 18.4C32.7641 18.112 32.6201 17.76 32.6201 17.344C32.6201 16.928 32.7641 16.576 33.0521 16.288C33.3561 15.984 33.7321 15.832 34.1801 15.832C34.6281 15.832 34.9961 15.976 35.2841 16.264C35.5881 16.536 35.7401 16.88 35.7401 17.296C35.7401 17.728 35.5881 18.096 35.2841 18.4C34.9961 18.688 34.6281 18.832 34.1801 18.832ZM41.4112 16.192H43.7152V34H41.4112V16.192ZM49.7943 16.192H52.0983V34H49.7943V16.192Z" fill="#EEEEEE"/>
</svg>
