<svg width="83" height="54" viewBox="0 0 83 54" fill="none" xmlns="http://www.w3.org/2000/svg">
<path d="M59.856 20.288H54.096V18.2H67.992V20.288H62.232V35H59.856V20.288Z" fill="#EEEEEE"/>
<line x1="79" y1="51.5" x2="44" y2="51.5" stroke="#EEEEEE" stroke-width="3"/>
<line x1="42.5" x2="42.5" y2="53.125" stroke="#EEEEEE" stroke-width="3"/>
<line y1="-1.5" x2="53.129" y2="-1.5" transform="matrix(-0.0140017 0.999902 -0.999592 -0.0285535 0.744141 0)" stroke="#EEEEEE" stroke-width="3"/>
<line y1="-1.5" x2="53.129" y2="-1.5" transform="matrix(-0.0140017 0.999902 -0.999592 -0.0285535 79.7441 0)" stroke="#EEEEEE" stroke-width="3"/>
<line x1="28.0058" y1="51.5" x2="0.00646046" y2="51.6092" stroke="#EEEEEE" stroke-width="3"/>
<line x1="41" y1="1.5" x2="3" y2="1.49999" stroke="#EEEEEE" stroke-width="3"/>
<line x1="80" y1="1.5" x2="53" y2="1.5" stroke="#EEEEEE" stroke-width="3"/>
<path d="M25.824 25.288C26.8 25.56 27.568 26.056 28.128 26.776C28.688 27.48 28.968 28.376 28.968 29.464C28.968 30.92 28.416 32.04 27.312 32.824C26.224 33.608 24.632 34 22.536 34H14.52V17.2H22.056C23.976 17.2 25.456 17.584 26.496 18.352C27.552 19.12 28.08 20.184 28.08 21.544C28.08 22.424 27.872 23.184 27.456 23.824C27.056 24.464 26.512 24.952 25.824 25.288ZM16.92 19.144V24.52H21.84C23.072 24.52 24.016 24.296 24.672 23.848C25.344 23.384 25.68 22.712 25.68 21.832C25.68 20.952 25.344 20.288 24.672 19.84C24.016 19.376 23.072 19.144 21.84 19.144H16.92ZM22.44 32.056C23.8 32.056 24.824 31.832 25.512 31.384C26.2 30.936 26.544 30.232 26.544 29.272C26.544 27.4 25.176 26.464 22.44 26.464H16.92V32.056H22.44Z" fill="#EEEEEE"/>
</svg>
